HIERARCHY
ROOT Hips
{
    OFFSET   0.000000   0.000000   0.000000
    CHANNELS 6 Xposition Yposition Zposition Zrotation Xrotation Yrotation
    JOINT Chest
    {
        OFFSET   0.000000   8.007230   0.000000
        CHANNELS 3 Zrotation Xrotation Yrotation
        JOINT Chest2
        {
            OFFSET   0.000000  22.077100   0.000000
            CHANNELS 3 Zrotation Xrotation Yrotation
            JOINT Neck
            {
                OFFSET   0.000000  23.254800   0.000000
                CHANNELS 3 Zrotation Xrotation Yrotation
                JOINT Head
                {
                    OFFSET   0.000010  14.370000   1.956600
                    CHANNELS 3 Zrotation Xrotation Yrotation
                    End Site
                    {
                        OFFSET   0.000000  19.566000   0.000000
                    }
                }
            }
            JOINT LeftCollar
            {
                OFFSET   3.911900  19.017000  -0.467062
                CHANNELS 3 Zrotation Xrotation Yrotation
                JOINT LeftShoulder
                {
                    OFFSET  10.383700   0.000000   0.000000
                    CHANNELS 3 Zrotation Xrotation Yrotation
                    JOINT LeftElbow
                    {
                        OFFSET  26.662100   0.001193   0.000835
                        CHANNELS 3 Zrotation Xrotation Yrotation
                        JOINT LeftWrist
                        {
                            OFFSET  28.869000  -0.000058  -0.000075
                            CHANNELS 3 Zrotation Xrotation Yrotation
                            JOINT LeftFinger0
                            {
                                OFFSET   2.044660  -2.323460   3.252850
                                CHANNELS 3 Zrotation Xrotation Yrotation
                                JOINT LeftFinger01
                                {
                                    OFFSET   3.088130   0.000000   0.000000
                                    CHANNELS 3 Zrotation Xrotation Yrotation
                                    JOINT LeftFinger02
                                    {
                                        OFFSET   2.639450   0.000000   0.000000
                                        CHANNELS 3 Zrotation Xrotation Yrotation
                                        End Site
                                        {
                                            OFFSET   2.582190   0.000000   0.000000
                                        }
                                    }
                                }
                            }
                            JOINT LeftFinger1
                            {
                                OFFSET   8.364480   0.000000   3.252850
                                CHANNELS 3 Zrotation Xrotation Yrotation
                                JOINT LeftFinger11
                                {
                                    OFFSET   4.646920   0.000000   0.000000
                                    CHANNELS 3 Zrotation Xrotation Yrotation
                                    JOINT LeftFinger12
                                    {
                                        OFFSET   2.323460   0.000000   0.000000
                                        CHANNELS 3 Zrotation Xrotation Yrotation
                                        End Site
                                        {
                                            OFFSET   2.273050   0.000000   0.000000
                                        }
                                    }
                                }
                            }
                            JOINT LeftFinger2
                            {
                                OFFSET   8.364490   0.000016   1.078090
                                CHANNELS 3 Zrotation Xrotation Yrotation
                                JOINT LeftFinger21
                                {
                                    OFFSET   5.111620   0.000000   0.000000
                                    CHANNELS 3 Zrotation Xrotation Yrotation
                                    JOINT LeftFinger22
                                    {
                                        OFFSET   2.788150   0.000012   0.000000
                                        CHANNELS 3 Zrotation Xrotation Yrotation
                                        End Site
                                        {
                                            OFFSET   2.727660   0.000000   0.000000
                                        }
                                    }
                                }
                            }
                            JOINT LeftFinger3
                            {
                                OFFSET   7.899780   0.000014  -1.078090
                                CHANNELS 3 Zrotation Xrotation Yrotation
                                JOINT LeftFinger31
                                {
                                    OFFSET   4.646930   0.000000   0.000000
                                    CHANNELS 3 Zrotation Xrotation Yrotation
                                    JOINT LeftFinger32
                                    {
                                        OFFSET   2.323470   0.000000   0.000000
                                        CHANNELS 3 Zrotation Xrotation Yrotation
                                        End Site
                                        {
                                            OFFSET   2.273050   0.000000   0.000000
                                        }
                                    }
                                }
                            }
                            JOINT LeftFinger4
                            {
                                OFFSET   7.435090   0.000000  -3.252850
                                CHANNELS 3 Zrotation Xrotation Yrotation
                                JOINT LeftFinger41
                                {
                                    OFFSET   3.717550   0.000000   0.000000
                                    CHANNELS 3 Zrotation Xrotation Yrotation
                                    JOINT LeftFinger42
                                    {
                                        OFFSET   1.858770   0.000000   0.000000
                                        CHANNELS 3 Zrotation Xrotation Yrotation
                                        End Site
                                        {
                                            OFFSET   1.818440   0.000000   0.000000
                                        }
                                    }
                                }
                            }
                        }
                    }
                }
            }
            JOINT RightCollar
            {
                OFFSET  -3.911900  19.017000  -0.467063
                CHANNELS 3 Zrotation Xrotation Yrotation
                JOINT RightShoulder
                {
                    OFFSET -10.383700   0.000023   0.000000
                    CHANNELS 3 Zrotation Xrotation Yrotation
                    JOINT RightElbow
                    {
                        OFFSET -26.662100   0.001246   0.001011
                        CHANNELS 3 Zrotation Xrotation Yrotation
                        JOINT RightWrist
                        {
                            OFFSET -28.869000  -0.000026  -0.000078
                            CHANNELS 3 Zrotation Xrotation Yrotation
                            JOINT RightFinger0
                            {
                                OFFSET  -2.044660  -2.323490   3.252850
                                CHANNELS 3 Zrotation Xrotation Yrotation
                                JOINT RightFinger01
                                {
                                    OFFSET  -3.088130   0.000000   0.000000
                                    CHANNELS 3 Zrotation Xrotation Yrotation
                                    JOINT RightFinger02
                                    {
                                        OFFSET  -2.639460   0.000000   0.000000
                                        CHANNELS 3 Zrotation Xrotation Yrotation
                                        End Site
                                        {
                                            OFFSET  -2.582190   0.000000   0.000000
                                        }
                                    }
                                }
                            }
                            JOINT RightFinger1
                            {
                                OFFSET  -8.364480   0.000000   3.252850
                                CHANNELS 3 Zrotation Xrotation Yrotation
                                JOINT RightFinger11
                                {
                                    OFFSET  -4.646920   0.000000   0.000000
                                    CHANNELS 3 Zrotation Xrotation Yrotation
                                    JOINT RightFinger12
                                    {
                                        OFFSET  -2.323470   0.000000   0.000000
                                        CHANNELS 3 Zrotation Xrotation Yrotation
                                        End Site
                                        {
                                            OFFSET  -2.273050   0.000000   0.000000
                                        }
                                    }
                                }
                            }
                            JOINT RightFinger2
                            {
                                OFFSET  -8.364480   0.000000   1.078090
                                CHANNELS 3 Zrotation Xrotation Yrotation
                                JOINT RightFinger21
                                {
                                    OFFSET  -5.111620   0.000000   0.000000
                                    CHANNELS 3 Zrotation Xrotation Yrotation
                                    JOINT RightFinger22
                                    {
                                        OFFSET  -2.788160   0.000000   0.000000
                                        CHANNELS 3 Zrotation Xrotation Yrotation
                                        End Site
                                        {
                                            OFFSET  -2.727660   0.000000   0.000000
                                        }
                                    }
                                }
                            }
                            JOINT RightFinger3
                            {
                                OFFSET  -7.899780   0.000000  -1.078090
                                CHANNELS 3 Zrotation Xrotation Yrotation
                                JOINT RightFinger31
                                {
                                    OFFSET  -4.646930   0.000000   0.000000
                                    CHANNELS 3 Zrotation Xrotation Yrotation
                                    JOINT RightFinger32
                                    {
                                        OFFSET  -2.323470   0.000000   0.000000
                                        CHANNELS 3 Zrotation Xrotation Yrotation
                                        End Site
                                        {
                                            OFFSET  -2.273050   0.000000   0.000000
                                        }
                                    }
                                }
                            }
                            JOINT RightFinger4
                            {
                                OFFSET  -7.435090   0.000000  -3.252850
                                CHANNELS 3 Zrotation Xrotation Yrotation
                                JOINT RightFinger41
                                {
                                    OFFSET  -3.717550   0.000000   0.000000
                                    CHANNELS 3 Zrotation Xrotation Yrotation
                                    JOINT RightFinger42
                                    {
                                        OFFSET  -1.858760   0.000000   0.000000
                                        CHANNELS 3 Zrotation Xrotation Yrotation
                                        End Site
                                        {
                                            OFFSET  -1.818440   0.000000   0.000000
                                        }
                                    }
                                }
                            }
                        }
                    }
                }
            }
        }
    }
    JOINT LeftHip
    {
        OFFSET   9.783010   0.000000   0.000000
        CHANNELS 3 Zrotation Xrotation Yrotation
        JOINT LeftKnee
        {
            OFFSET   0.000073 -41.789100   0.001749
            CHANNELS 3 Zrotation Xrotation Yrotation
            JOINT LeftAnkle
            {
                OFFSET   0.000111 -41.133200  -0.000179
                CHANNELS 3 Zrotation Xrotation Yrotation
                JOINT LeftToe
                {
                    OFFSET   0.000000  -6.358960  14.674500
                    CHANNELS 3 Zrotation Xrotation Yrotation
                    End Site
                    {
                        OFFSET   0.000000   0.000000   3.913200
                    }
                }
            }
        }
    }
    JOINT RightHip
    {
        OFFSET  -9.783010   0.000000   0.000000
        CHANNELS 3 Zrotation Xrotation Yrotation
        JOINT RightKnee
        {
            OFFSET   0.000424 -41.789200   0.005205
            CHANNELS 3 Zrotation Xrotation Yrotation
            JOINT RightAnkle
            {
                OFFSET   0.000000 -41.133200  -0.000155
                CHANNELS 3 Zrotation Xrotation Yrotation
                JOINT RightToe
                {
                    OFFSET   0.000000  -6.358960  14.674500
                    CHANNELS 3 Zrotation Xrotation Yrotation
                    End Site
                    {
                        OFFSET   0.000000   0.000000   3.913200
                    }
                }
            }
        }
    }
}
MOTION
Frames: 6
Frame Time:   0.016667
  0.803303  89.602000  -0.027245  -3.257250  -9.425700  -1.337350   0.478316   4.917550   1.062180   0.869511   9.843050   2.094610   0.778855  -0.799252   0.007112   1.280050  -1.619740   0.296418  -4.084100  -1.837930   0.259089 -74.151300  16.223000  -1.452980  -1.312890  -4.150290 -14.450500  10.715800  -6.212570   0.015163  40.626200  26.209000 -56.314500 -23.877600   0.000000   0.000000  -6.938800   0.013033  -0.001046 -24.385100   3.940810  -8.620940 -20.188100  -0.004400   0.002885 -14.145300   0.000227   0.002988 -26.196800  -0.293738   0.596737 -26.210300  -0.000563   0.002765 -17.447500  -0.001020   0.001629 -24.889400  -0.279978   0.603314 -24.896700  -0.000737   0.005255 -16.575100  -0.001536   0.002692 -24.461800  -0.275396   0.605424 -36.695100  -0.004792   0.002319 -24.438900  -0.008774  -0.000108  10.574700   0.466559   5.938330  70.364800   6.366940  -5.013870  -0.241317  -9.625210  10.474700 -13.391400  -3.244060   1.582040 -38.496600  31.696200  63.782700  31.035500   0.007377  -0.004357  10.517700   0.002665  -0.001447  29.845500   7.091720  12.149700  25.026600   0.005092  -0.005718  17.518600   0.003561  -0.004872  29.243900  -1.670170  -2.979990  43.930900   0.005754   0.001890  29.258000   0.008385  -0.008442  28.627700  -1.637610  -2.998020  38.355100  -0.002575   0.004529  25.544500   0.002910   0.003447  39.239300  -2.162210  -2.644910  58.933900  -0.002708   0.003754  39.249900   0.001680   0.001832   2.840540  10.562500   4.495090   1.353370   0.000403   6.121570  -1.206200  -2.455880   3.280860  -0.000000   0.000000   0.000000   3.662060   7.886430  -0.531974  -2.171090   4.970870 -10.450900   2.118250  -4.206880   0.402377   0.000000   0.000000  -0.000000
  0.795731  89.602000  -0.031327  -3.252410  -9.448430  -1.305360   0.482454   4.929380   1.066620   0.877242   9.866770   2.103120   0.785594  -0.799240   0.007113   1.291110  -1.619740   0.277744  -4.083510  -1.849080   0.271315 -74.167000  16.221200  -1.453050  -1.293490  -4.092490 -14.521300  10.715200  -6.223900   0.007860  40.624800  26.237200 -56.269300 -23.914100   0.000000   0.000000  -6.957040   0.013057  -0.001054 -24.382500   3.928880  -8.596240 -20.188100  -0.004417   0.002886 -14.145200   0.000209   0.003003 -26.196000  -0.328370   0.667242 -26.203900  -0.000470   0.002783 -17.447500  -0.000966   0.001663 -24.888700  -0.313024   0.674576 -24.893400  -0.000676   0.005338 -16.574600  -0.001499   0.002835 -24.466300  -0.308098   0.676852 -36.702300  -0.004726   0.002360 -24.443700  -0.008819  -0.000070  10.599600   0.423053   5.972980  70.358800   6.385810  -5.007120  -0.231702  -9.648080  10.428100 -13.410400  -3.212840   1.547730 -38.473600  31.683700  63.773300  31.059000   0.007377  -0.004368  10.529500   0.002656  -0.001455  29.852800   7.076290  12.118200  25.033700   0.005085  -0.005716  17.523700   0.003560  -0.004872  29.256300  -1.687320  -3.009020  43.950700   0.005752   0.001905  29.271200   0.008385  -0.008435  28.625900  -1.653810  -3.027590  38.372200  -0.002566   0.004522  25.555900   0.002901   0.003441  39.256100  -2.184370  -2.670340  58.960600  -0.002686   0.003727  39.267700   0.001670   0.001817   2.841610  10.562500   4.495080   1.355580   0.038822   6.106370  -1.213080  -2.469050   3.266810   0.000000   0.000000   0.000000   3.674160   7.900490  -0.537499  -2.181440   4.989710 -10.437300   2.115770  -4.231330   0.358789  -0.000000   0.000000  -0.000000
  0.782625  89.601900  -0.037698  -3.244590  -9.490130  -1.253460   0.489812   4.949170   1.076260   0.890851   9.906530   2.121800   0.796760  -0.799154   0.007114   1.309470  -1.619740   0.246852  -4.082650  -1.864900   0.288741 -74.199500  16.212900  -1.453080  -1.253520  -3.983690 -14.646700  10.715300  -6.253080  -0.003459  40.632400  26.270800 -56.228100 -23.950600   0.000000  -0.000000  -6.975290   0.013116  -0.001072 -24.381600   3.911460  -8.559210 -20.188100  -0.004458   0.002887 -14.145100   0.000164   0.003038 -26.195200  -0.363001   0.737748 -26.197500  -0.000315   0.002813 -17.447500  -0.000876   0.001720 -24.887900  -0.346068   0.745839 -24.890200  -0.000577   0.005491 -16.574000  -0.001439   0.003099 -24.478200  -0.340799   0.748280 -36.720600  -0.004617   0.002427 -24.455900  -0.008912   0.000000  10.635900   0.352983   6.007620  70.350400   6.431550  -4.959060  -0.212177  -9.705100  10.316100 -13.454300  -3.144730   1.471280 -38.444100  31.671100  63.764000  31.099200   0.007377  -0.004379  10.549600   0.002636  -0.001467  29.869300   7.041010  12.048300  25.047000   0.005073  -0.005715  17.533000   0.003555  -0.004873  29.280900  -1.719690  -3.063540  43.990200   0.005746   0.001945  29.297400   0.008386  -0.008415  28.622600  -1.684240  -3.083200  38.398100  -0.002545   0.004505  25.573100   0.002876   0.003423  39.280200  -2.225700  -2.718450  58.999400  -0.002625   0.003661  39.293600   0.001645   0.001780   2.845270  10.562600   4.494980   1.359750   0.082852   6.082150  -1.223800  -2.482250   3.243100   0.000000   0.000000   0.000000   3.695940   7.924530  -0.546748  -2.199590   5.025290 -10.408700   2.110730  -4.273700   0.280106  -0.000000   0.000000   0.000000
  0.771273  89.601800  -0.041936  -3.238870  -9.530650  -1.215190   0.496697   4.965000   1.089490   0.903258   9.938440   2.147740   0.805713  -0.794713   0.007115   1.324190  -1.610740   0.222600  -4.082240  -1.872460   0.297319 -74.239700  16.193300  -1.452080  -1.204800  -3.868460 -14.763400  10.728400  -6.298090  -0.010475  40.649200  26.284100 -56.262900 -23.924700   0.000000  -0.000000  -6.962350   0.013201  -0.001091 -24.388000   3.901440  -8.534540 -20.191700  -0.004518   0.002886 -14.145100   0.000090   0.003092 -26.207200  -0.351886   0.714901 -26.209300  -0.000159   0.002847 -17.455300  -0.000783   0.001776 -24.892200  -0.335409   0.722778 -24.894200  -0.000483   0.005691 -16.578000  -0.001377   0.003445 -24.497100  -0.330390   0.725103 -36.748700  -0.004508   0.002493 -24.474600  -0.009037   0.000088  10.654000   0.298279   6.007310  70.356600   6.488030  -4.851670  -0.189731  -9.787760  10.163100 -13.516200  -3.058560   1.371530 -38.434400  31.681900  63.771800  31.134400   0.007364  -0.004371  10.567200   0.002610  -0.001474  29.896100   6.989310  11.949600  25.060600   0.005063  -0.005718  17.542500   0.003545  -0.004873  29.311300  -1.754220  -3.120990  44.038500   0.005736   0.002008  29.329600   0.008388  -0.008383  28.619200  -1.716390  -3.141980  38.416300  -0.002512   0.004478  25.585200   0.002837   0.003397  39.293400  -2.268870  -2.769710  59.021400  -0.002530   0.003559  39.308300   0.001606   0.001724   2.850710  10.586100   4.492170   1.362670   0.089398   6.065440  -1.230170  -2.478890   3.223100   0.000000   0.000000  -0.000000   3.717880   7.943790  -0.555442  -2.217710   5.062760 -10.368000   2.102560  -4.312360   0.200164   0.000000   0.000000   0.000000
  0.759037  89.601600  -0.045550  -3.233520  -9.577420  -1.178120   0.504075   4.981320   1.103880   0.916541   9.971340   2.175970   0.814268  -0.783180   0.007115   1.338230  -1.587170   0.198666  -4.082080  -1.875330   0.300696 -74.285900  16.170400  -1.451070  -1.148630  -3.742180 -14.887000  10.752000  -6.355360  -0.016963  40.673900  26.296000 -56.308100 -23.881100   0.000000   0.000000  -6.940530   0.013308  -0.001119 -24.396200   3.896910  -8.522210 -20.198100  -0.004592   0.002885 -14.145100   0.000000   0.003158 -26.225600  -0.334563   0.679274 -26.227400  -0.000066   0.002867 -17.467400  -0.000727   0.001809 -24.900200  -0.318809   0.686809 -24.901900  -0.000427   0.005820 -16.584700  -0.001339   0.003668 -24.520300  -0.314219   0.688935 -36.783200  -0.004443   0.002533 -24.497500  -0.009162   0.000144  10.665700   0.253939   6.005370  70.365400   6.582100  -4.666910  -0.163057  -9.898410   9.950360 -13.590300  -2.948920   1.245010 -38.416600  31.702100  63.791300  31.169500   0.007351  -0.004362  10.584700   0.002576  -0.001484  29.927600   6.932820  11.842200  25.075100   0.005051  -0.005724  17.552600   0.003530  -0.004873  29.342400  -1.791940  -3.183920  44.088100   0.005723   0.002090  29.362700   0.008391  -0.008340  28.615600  -1.751530  -3.206360  38.425600  -0.002472   0.004445  25.591500   0.002787   0.003365  39.297100  -2.315580  -2.826280  59.031200  -0.002408   0.003435  39.314800   0.001559   0.001655   2.857530  10.630400   4.486630   1.363960   0.090336   6.049400  -1.235990  -2.471980   3.203710  -0.000000   0.000000  -0.000000   3.739570   7.966210  -0.561764  -2.233450   5.104840 -10.330400   2.090150  -4.350220   0.121626  -0.000000   0.000000   0.000000
  0.745550  89.601500  -0.048547  -3.228420  -9.631310  -1.141000   0.511094   4.997920   1.115700   0.929323  10.004700   2.199060   0.822541  -0.764977   0.007126   1.351790  -1.550200   0.178449  -4.083480  -1.864010   0.299598 -74.329700  16.147800  -1.460640  -1.089750  -3.613770 -15.011700  10.777600  -6.423590  -0.024285  40.702400  26.301600 -56.332700 -23.836000   0.000000   0.000049  -6.917980   0.013435  -0.001173 -24.400400   3.907030  -8.544340 -20.202900  -0.004679   0.002882 -14.145400  -0.000095   0.003229 -26.239100  -0.320844   0.650998 -26.240800  -0.000128   0.002854 -17.476300  -0.000763   0.001786 -24.907900  -0.305707   0.658243 -24.909600  -0.000466   0.005802 -16.589900  -0.001364   0.003638 -24.544200  -0.301582   0.660148 -36.819000  -0.004487   0.002506 -24.521400  -0.009258   0.000113  10.671500   0.230538   5.987890  70.365700   6.742120  -4.384650  -0.133714 -10.029400   9.664660 -13.671300  -2.822510   1.092400 -38.373900  31.712300  63.848300  31.200300   0.007353  -0.004397  10.600100   0.002536  -0.001510  29.953300   6.885440  11.752000  25.087600   0.005038  -0.005726  17.561300   0.003508  -0.004875  29.364100  -1.829950  -3.248420  44.123800   0.005707   0.002187  29.386500   0.008394  -0.008289  28.612100  -1.787250  -3.272130  38.395600  -0.002428   0.004408  25.571400   0.002728   0.003329  39.282500  -2.362320  -2.884770  59.013600  -0.002268   0.003296  39.303100   0.001506   0.001578   2.866480  10.673700   4.479550   1.364350   0.090282   6.032270  -1.243370  -2.466430   3.187420  -0.000000   0.000000  -0.000000   3.756710   7.993790  -0.563358  -2.240150   5.150550 -10.315700   2.073230  -4.382010   0.058980  -0.000000   0.000000  -0.000000
